<svg xmlns="http://www.w3.org/2000/svg" xmlns:xlink="http://www.w3.org/1999/xlink" viewBox="0 0 79.35 97.74"><defs><clipPath id="clip-path" transform="translate(0 0)"><rect width="79.35" height="97.74" style="fill:none"/></clipPath><clipPath id="clip-path-2" transform="translate(0 0)"><rect width="79.35" height="97.74" style="fill:none"/></clipPath></defs><title>资源 1</title><g id="图层_2" data-name="图层 2"><g id="图层_1-2" data-name="图层 1"><g id="图稿_1" data-name="图稿 1"><g style="clip-path:url(#clip-path)"><g style="clip-path:url(#clip-path-2)"><path d="M75.81,53.53a4.33,4.33,0,0,1,1.11,5.31l-.1.07C65.21,70.28,49.83,79,33.09,75,14.85,70.76,5.27,52.72,9.21,34.86c3.47-15.71,18.91-36.81,37.42-32,8.95,2.3,13.47,11,13.89,19.64C61,32,56.73,41,52.84,49.34c-.64,1.39,1.42,2.6,2.06,1.21.51-1.1,1-2.22,1.52-3.36,2-2.31,4.49-4.5,7.4-5.24,1-.25,3-.5,3.49.76.58,1.46-.65,3.33-1.53,4.33a34.58,34.58,0,0,0-3.15,3.49.82.82,0,0,0,1.11,1.12,15.86,15.86,0,0,0,2.45-2.15,18.17,18.17,0,0,1,2-1c1-.41,4.48-2,4.58.18.06,1.34-2,2.24-2.88,2.86a4.49,4.49,0,0,0-1.67,2.11.84.84,0,0,0,1.39.81A10.6,10.6,0,0,1,71,53.24a4.47,4.47,0,0,1,4.82.29M43.33,55.21c4.17-3.39.24-9-3.28-10.77-4.63-2.4-11.76-4.11-15.95,0a6.3,6.3,0,0,0-1.9,4.91,4.28,4.28,0,0,0,.91,4.22c1.69,1.92,4,1.39,5.82,0a4.82,4.82,0,0,0,3.73,4.56,4.83,4.83,0,0,0,5.19-3.42,4.08,4.08,0,0,0,5.48.46M31.05,24a3.64,3.64,0,0,0,2.78-5.23A3.18,3.18,0,0,0,29,18.22a3.77,3.77,0,0,0-1.84,1.54,2.18,2.18,0,0,0,.48,3A4.35,4.35,0,0,0,31.05,24" transform="translate(0 0)" style="fill:#fcce00"/><path d="M43,50.58c.08,1.5-4.57,6.35-4.92,1.61a.57.57,0,0,0-.15-.36,4.53,4.53,0,0,0-.34-.86c-.59-1.06-2.06-.13-1.6.93.89,2.05-.92,5-3.32,4.46a3.51,3.51,0,0,1-2.31-4.18A6.73,6.73,0,0,0,31.17,51a.77.77,0,0,0-1.33-.78A8.2,8.2,0,0,1,26.59,53a.56.56,0,0,0-.2-.14,4,4,0,0,1-2.17-5,19.17,19.17,0,0,1,2.05-2.79s0,0,0-.07l.18-.13c2.47-1.43,5.47-1.1,8.1-.43a16.24,16.24,0,0,1,6,2.53c1.08.84,2.4,2.12,2.48,3.6" transform="translate(0 0)" style="fill:#f29600"/><path d="M16.52,13.82a.85.85,0,0,0,.4,0,51,51,0,0,0-7.68,13A28.29,28.29,0,0,1,3,21.27c2.51-.14,5-.27,7.52-.5a1.07,1.07,0,0,0,1-1.09.9.9,0,0,0,.92-1.32c-1-2-2.5-3.94-2.8-6.17a32.18,32.18,0,0,0,6.86,1.63" transform="translate(0 0)" style="fill:#f29600"/><path d="M76.88,51.94a6.35,6.35,0,0,1,1.34,8.66,1,1,0,0,1-1.35.31,49.86,49.86,0,0,1-24.57,16c1.29,4.45,2.44,9,3.39,13.6a5.09,5.09,0,0,1,1.42-.24c2.77-.05,5.75,2.34,5.06,5.29-.23,1-1.57.66-1.63-.22a3.45,3.45,0,0,0-4.48-3.15h0c.14.7.29,1.4.41,2.1.23,1.24-1.6,1.78-1.91.53-.12-.49-.22-1-.34-1.47a9.65,9.65,0,0,0-2,3.45.65.65,0,0,1-1.25-.35,8.74,8.74,0,0,1,2.88-4.91c-1.05-4.73-1.91-9.57-2.58-14.34a40.73,40.73,0,0,1-10.46,1.21c.13,4.22.25,8.6.06,12.88a5,5,0,0,1,3.72,5.52c-.16,1-1.77.74-1.71-.23A3.68,3.68,0,0,0,40.69,93c-.08,1.24-.18,2.46-.33,3.67a.9.9,0,0,1-1.8,0c-.08-1.16-.11-2.34-.12-3.53a3.68,3.68,0,0,0-1.82,4,.53.53,0,0,1-1,.28,4.73,4.73,0,0,1,2.84-5.9c0-4.36.44-8.8.81-13.08a38.93,38.93,0,0,1-5.33-.64A34.1,34.1,0,0,1,6.28,48.62,42.61,42.61,0,0,1,8.78,28c-3.56-1.13-6.59-4.1-8.62-7.15a1.07,1.07,0,0,1,.91-1.59c3.14-.19,6.29-.45,9.43-.55-1.64-2.36-3.32-5.09-2.95-8,.07-.59.62-1.3,1.32-1a31.76,31.76,0,0,0,7.65,2.08,1.15,1.15,0,0,1,.95,1.4,47.85,47.85,0,0,1,5.41-5.52C32.89-1,49.36-4.09,58.16,8c7.76,10.66,4.7,23.57.07,35,2.62-2.3,5.84-3.94,8.8-2.82,3.51,1.31,2.85,4.27,1.12,6.91.39-.17.77-.34,1.17-.48,1.42-.51,3.44-1.25,4.66.07,1.39,1.51.76,3-.42,4.28a5.6,5.6,0,0,1,3.32,1m0,6.9a4.33,4.33,0,0,0-1.11-5.31A4.47,4.47,0,0,0,71,53.24a10.6,10.6,0,0,0-1.34,1.25.84.84,0,0,1-1.39-.81,4.49,4.49,0,0,1,1.67-2.11c.84-.62,2.94-1.52,2.88-2.86-.1-2.19-3.55-.59-4.58-.18a18.17,18.17,0,0,0-2,1,15.86,15.86,0,0,1-2.45,2.15.82.82,0,0,1-1.11-1.12A34.58,34.58,0,0,1,65.78,47c.88-1,2.11-2.87,1.53-4.33-.51-1.26-2.5-1-3.49-.76-2.91.74-5.39,2.93-7.4,5.24-.5,1.14-1,2.26-1.52,3.36-.64,1.39-2.7.18-2.06-1.21C56.73,41,61,32,60.52,22.46,60.1,13.77,55.58,5.12,46.63,2.82c-18.51-4.77-33.95,16.33-37.42,32C5.27,52.72,14.85,70.76,33.09,75,49.83,79,65.21,70.28,76.82,58.91l.1-.07m-60-45.05a.85.85,0,0,1-.4,0,32.18,32.18,0,0,1-6.86-1.63c.3,2.23,1.78,4.18,2.8,6.17a.9.9,0,0,1-.92,1.32,1.07,1.07,0,0,1-1,1.09c-2.5.23-5,.36-7.52.5a28.29,28.29,0,0,0,6.21,5.55,51,51,0,0,1,7.68-13" transform="translate(0 0)" style="fill:#1c1c1b"/><path d="M40.05,44.44c3.52,1.81,7.45,7.38,3.28,10.77a4.08,4.08,0,0,1-5.48-.46,4.83,4.83,0,0,1-5.19,3.42,4.82,4.82,0,0,1-3.73-4.56c-1.8,1.36-4.13,1.89-5.82,0a4.28,4.28,0,0,1-.91-4.22,6.3,6.3,0,0,1,1.9-4.91c4.19-4.12,11.32-2.41,15.95,0m-1.93,7.75c.35,4.74,5-.11,4.92-1.61s-1.4-2.76-2.48-3.6a16.24,16.24,0,0,0-6-2.53c-2.63-.67-5.63-1-8.1.43l-.18.13s0,.05,0,.07a19.17,19.17,0,0,0-2.05,2.79,4,4,0,0,0,2.17,5,.56.56,0,0,1,.2.14,8.2,8.2,0,0,0,3.25-2.79.77.77,0,0,1,1.33.78,6.73,6.73,0,0,1-.77,1.17,3.51,3.51,0,0,0,2.31,4.18c2.4.57,4.21-2.41,3.32-4.46-.46-1.06,1-2,1.6-.93a4.53,4.53,0,0,1,.34.86.57.57,0,0,1,.15.36" transform="translate(0 0)" style="fill:#1c1c1b"/><path d="M33.83,18.78A3.64,3.64,0,0,1,31.05,24a4.35,4.35,0,0,1-3.42-1.22,2.18,2.18,0,0,1-.48-3A3.77,3.77,0,0,1,29,18.22a3.18,3.18,0,0,1,4.84.56" transform="translate(0 0)" style="fill:#1c1c1b"/></g></g></g></g></g></svg>